<?xml version="1.0" encoding="UTF-8" standalone="no"?>
<!-- Generator: visioncortex VTracer 0.6.3 -->

<svg
   version="1.1"
   width="410"
   height="374"
   id="svg4"
   sodipodi:docname="logo.svg"
   inkscape:version="1.4.2 (ebf0e940d0, 2025-05-08)"
   xmlns:inkscape="http://www.inkscape.org/namespaces/inkscape"
   xmlns:sodipodi="http://sodipodi.sourceforge.net/DTD/sodipodi-0.dtd"
   xmlns="http://www.w3.org/2000/svg"
   xmlns:svg="http://www.w3.org/2000/svg">
  <defs
     id="defs4" />
  <sodipodi:namedview
     id="namedview4"
     pagecolor="#505050"
     bordercolor="#eeeeee"
     borderopacity="1"
     inkscape:showpageshadow="0"
     inkscape:pageopacity="0"
     inkscape:pagecheckerboard="0"
     inkscape:deskcolor="#505050"
     inkscape:zoom="0.78"
     inkscape:cx="167.94872"
     inkscape:cy="205.76923"
     inkscape:window-width="1366"
     inkscape:window-height="696"
     inkscape:window-x="0"
     inkscape:window-y="0"
     inkscape:window-maximized="1"
     inkscape:current-layer="svg4"
     showgrid="false" />
  <path
     d="M -1.8326631,0.14113337 11.646186,0.27401249 c 0,0 0.908271,12.23500051 1.521205,18.33794051 0.398253,3.965373 0.273675,1.245742 1.400759,11.873626 0.710918,6.703659 2.019317,13.881509 3.301415,20.775291 C 19.660562,60.890978 24.078901,80.394505 24,80 l 0.555323,2 -0.188711,-0.259387 c 0,0 1.627009,-3.891464 2.633388,-5.740613 2.077579,-3.817402 4.41261,-7.507966 7,-11 3.659121,-4.938482 7.604395,-9.703905 12,-14 C 64.311369,33.103177 110.3985,4.3118701 157,1 168.96981,0.14933176 181.03019,0.14933176 193,1 249.09231,4.9863572 297.33941,40.983464 307,56.838178 V 57 L 71,58 c 0,0 -8.534291,0.138465 -16,4 -3.452777,1.785901 -6.640981,3.62402 -9.448958,6.110966 -3.229544,2.860317 -6.023114,6.268239 -8.289905,9.938801 -2.018578,3.268636 -4.102119,7.120824 -4.607476,10.564038 C 31.879191,93.890607 32.922106,99.24627 35,104 c 10.925476,24.9949 29.948517,46.6522 51,64 27.26891,22.47136 58.07256,37.3732 94,49 -0.92568,4.01886 -1.96218,8.00921 -3,12 C 154.27588,221.89149 110.72354,205.29102 74,174 20.521215,130.76509 5.1534676,72.576217 -0.38427624,19.032462 -1.0339982,12.750381 -1.8326631,0.14113337 -1.8326631,0.14113337 Z"
     fill="#1080ce"
     id="path1"
     sodipodi:nodetypes="ccasacccasssscccsaasaasccsc"
     style="fill:#2094ff;fill-opacity:1"
     transform="translate(29)" />
  <path
     d="m 0,0 h 14 c 0.866502,23.394257 2.210598,52.901361 13,86 18.074862,55.44823 60.019549,114.54486 165,153 2.96933,1.08769 9,3 9,3 l -2.72234,9.05637 L 196,258 H 31 C 25.150766,243.5935 7.7015144,200.43097 23,140 c 1.112666,-4.39517 4,-13 4,-13 0,0 -1.237672,-4.03447 -2,-6 C 10.303185,90.290566 1.7830731,57.017244 0,23 Z"
     fill="#3469ed"
     id="path2"
     sodipodi:nodetypes="ccssccccscscc"
     style="fill:#2981ff;fill-opacity:1" />
  <path
     d="M 0.50525601,-0.4803004 C 8.7914834,2.3384306 17.029597,5.4618124 25,9 c 5.439549,2.442717 10.698029,5.271511 16,8 5.70116,2.933919 11.512036,5.684376 17,9 6.56823,3.96828 12.789667,8.492156 19,13 37.88059,27.496081 60.35029,59.515671 74,96 2.32725,6.22053 4.3463,12.56755 6,19 2.11601,8.23072 3.07402,11.6251 4.55384,19.99363 0.76344,4.31733 1.8056,11.98308 2.44616,18.00637 0.74184,6.97561 1.44944,16.97228 1.61625,20.98268 0.27706,6.66091 0.48418,10.98987 0.48418,10.98987 -4.62239,0.19381 -6.31866,-0.41525 -10.92909,0.0155 0,0 -0.0849,-9.02926 -0.68042,-16.71459 -0.64845,-8.36803 -2.46761,-22.16322 -3.89959,-30.43328 -1.28308,-7.41008 -3.20265,-14.03348 -5.25774,-20.92562 -1.45433,-4.87737 -4.99692,-14.42793 -4.99692,-14.42793 l -0.1066,0.01 -3.50551,4.91501 -7.94972,12.3635 c -3.86823,5.63353 -6.42005,8.33511 -10.06713,12.11093 C 105.27551,184.79153 64.876896,219.87518 -4,224 c -57.079207,3.16139 -107.44769,-24.46518 -128,-44 -2.86608,-2.72419 -7.87088,-8.87524 -7.87088,-8.87524 L -140,171 c 0.17286,-1.12356 164.258738,2.56982 232.587186,0.23168 C 115.21087,170.45752 129.68148,151.01715 131,133 133.6421,96.896486 92.73056,64.484307 66,46 59.228573,41.317527 52.135778,37.105904 45,33 40.088373,30.173866 35.108865,27.451655 30,25 20.845187,20.606765 24.985286,22.723078 22.484039,21.571286 13.965824,17.648756 -3.0286641,9.7130425 -3.0286641,9.7130425 -1.3187904,5.2643044 -0.87778242,3.2928042 0.50525601,-0.4803004 Z"
     fill="#3469ed"
     id="path3"
     sodipodi:nodetypes="ccssssssasccssaccccasaccscsssacc"
     style="fill:#2094ff;fill-opacity:1"
     transform="translate(216,150)" />
  <path
     d="M -0.91087976,0.74537187 152,0 c 6.08629,12.503159 22.85359,55.265504 6,120 -0.61141,2.34842 -2,7 -2,7 16.9139,31.99043 26.10797,67.90412 28,104 v 23 H 170 C 166.45231,148.42761 130.23491,72.580784 5,20 1.6898142,18.610195 -5,16 -5,16 L -2.8893539,8 -1,1 Z"
     fill="#1080ce"
     id="path4"
     sodipodi:nodetypes="ccsccccscccc"
     style="fill:#2981ff;fill-opacity:1"
     transform="translate(226,120)" />
</svg>
