<?xml version="1.0" encoding="UTF-8" standalone="no"?>
<!-- Generator: visioncortex VTracer 0.6.3 -->

<svg
   version="1.1"
   width="410"
   height="374"
   id="svg4"
   sodipodi:docname="logo.svg"
   inkscape:version="1.3.2 (091e20e, 2023-11-25, custom)"
   xmlns:inkscape="http://www.inkscape.org/namespaces/inkscape"
   xmlns:sodipodi="http://sodipodi.sourceforge.net/DTD/sodipodi-0.dtd"
   xmlns="http://www.w3.org/2000/svg"
   xmlns:svg="http://www.w3.org/2000/svg">
  <defs
     id="defs4" />
  <sodipodi:namedview
     id="namedview4"
     pagecolor="#505050"
     bordercolor="#eeeeee"
     borderopacity="1"
     inkscape:showpageshadow="0"
     inkscape:pageopacity="0"
     inkscape:pagecheckerboard="0"
     inkscape:deskcolor="#505050"
     inkscape:zoom="5.776859"
     inkscape:cx="346.46856"
     inkscape:cy="114.6817"
     inkscape:window-width="1366"
     inkscape:window-height="705"
     inkscape:window-x="-8"
     inkscape:window-y="-8"
     inkscape:window-maximized="1"
     inkscape:current-layer="svg4" />
  <path
     d="m 0,0 h 11 l 1,1 c 0,0 0.872921,21.372116 2,32 0.710918,6.703659 1.652251,13.394849 3,20 1.858819,9.109843 7,27 7,27 l 0.555323,2 H 26 c 0,0 0.274476,-4.106663 1,-6 1.555161,-4.058369 4.41261,-7.507966 7,-11 3.659121,-4.938482 7.604395,-9.703905 12,-14 3.38809,-3.311388 7.22907,-6.132155 11,-9 5.520986,-4.198788 11.159379,-8.258575 17,-12 6.16224,-3.947449 12.447938,-7.740239 19,-11 6.152462,-3.060953 12.51791,-5.718626 19,-8 6.86721,-2.4169141 13.90581,-4.3652179 21,-6 5.60727,-1.2921377 11.31771,-2.092993 17,-3 2.32756,-0.3715245 4.64891,-0.832913 7,-1 11.96981,-0.85066824 24.03019,-0.85066824 36,0 7.05328,0.5012611 14.08442,1.5252857 21,3 7.12002,1.5183113 14.1113,3.6450432 21,6 6.79418,2.322645 13.48455,4.98263 20,8 5.81816,2.694452 11.53641,5.644368 17,9 5.91046,3.63009 11.52744,7.738282 17,12 4.84937,3.776419 9.49028,7.823856 14,12 1.38352,1.281182 4,4 4,4 v 2 L 71,58 c 0,0 -10.920996,1.896208 -16,4 -3.591398,1.487606 -7.156354,3.349568 -10,6 -2.976454,2.774216 -5.226192,6.338148 -7,10 -1.517144,3.131994 -2.494643,6.556786 -3,10 -0.77447,5.276802 -1.072351,10.775585 0,16 0.510424,2.48675 1.868407,4.72757 3,7 2.395868,4.81131 5.021178,9.52613 8,14 3.02994,4.55064 6.566696,8.74544 10,13 3.564799,4.41751 7.156414,8.82279 11,13 2.55354,2.77519 5.203807,5.46948 8,8 3.512673,3.17893 7.288698,6.0554 11,9 4.28279,3.39803 8.510009,6.88089 13,10 5.16529,3.58823 10.58261,6.80509 16,10 5.91219,3.48671 11.86496,6.92228 18,10 6.53442,3.27807 13.24065,6.21511 20,9 7.89979,3.25475 15.94584,6.14859 24,9 0.99366,0.35179 3,1 3,1 l -1.55532,6.44468 L 177,229 c 0,0 -10.06924,-3.13844 -15,-5 -8.80386,-3.32381 -17.45392,-7.06046 -26,-11 -5.41518,-2.49627 -10.73323,-5.20416 -16,-8 -5.40486,-2.86914 -10.80685,-5.76338 -16,-9 -5.492704,-3.42332 -10.7861,-7.1654 -16,-11 -4.781032,-3.51624 -9.482636,-7.15089 -14,-11 -4.488773,-3.82475 -8.747484,-7.91418 -13,-12 -2.719435,-2.61283 -5.49723,-5.17894 -8,-8 -3.938633,-4.43953 -7.420699,-9.26599 -11,-14 -2.734353,-3.61647 -5.497908,-7.21912 -8,-11 -3.217942,-4.8626 -6.263403,-9.85111 -9,-15 -2.589556,-4.87223 -4.919357,-9.88968 -7,-15 C 15.336544,92.45822 13.137783,85.731922 11,79 9.5310452,74.374232 8.1435178,69.71677 7,65 5.3981506,58.392709 4.0572135,51.71599 3,45 1.6433704,36.381957 0,19 0,19 Z"
     fill="#1080ce"
     transform="translate(29)"
     id="path1"
     sodipodi:nodetypes="cccsscccssssssssssssssssscccsssssssssssssssscccssssssssssssssscc" />
  <path
     d="m 0,0 h 14 c 0,0 0.787785,22.046691 2,33 1.151352,10.403362 2.78653,20.769843 5,31 1.607448,7.429259 3.644198,14.773108 6,22 2.321576,7.121896 4.987948,14.14153 8,21 2.397683,5.45955 5.109399,10.78464 8,16 3.408734,6.1502 7.052717,12.18077 11,18 2.806788,4.13787 5.871363,8.09979 9,12 3.845948,4.79442 7.823856,9.49028 12,14 3.843547,4.15056 7.805711,8.20422 12,12 3.512673,3.17893 7.270813,6.07808 11,9 5.24769,4.11171 10.48284,8.25762 16,12 5.81923,3.94728 11.94674,7.42194 18,11 4.62696,2.73498 9.22211,5.53817 14,8 8.4851,4.37199 17.23246,8.22623 26,12 6.59523,2.83875 13.25788,5.53031 20,8 2.96933,1.08769 9,3 9,3 l -2.72234,9.05637 L 196,258 H 31 c 0,0 -4.306518,-10.56157 -6,-16 -1.634457,-5.24888 -2.880552,-10.61771 -4,-16 -1.23863,-5.95532 -2.26602,-11.96168 -3,-18 -0.524429,-4.31438 -0.83321,-8.65707 -1,-13 -0.204675,-5.3294 -0.279544,-10.674 0,-16 0.333792,-6.35957 1.041175,-12.70427 2,-19 1.023622,-6.72119 2.331502,-13.40922 4,-20 1.112666,-4.39517 4,-13 4,-13 0,0 -1.237672,-4.03447 -2,-6 -2.374256,-6.1216 -5.625744,-11.8784 -8,-18 C 13.95069,95.137887 11.232251,87.131923 9,79 6.9231371,71.434143 5.4457504,63.711379 4,56 2.8184848,49.698006 1.7290736,43.370209 1,37 0.46800978,32.351788 0,23 0,23 Z"
     fill="#3469ed"
     id="path2"
     sodipodi:nodetypes="ccsssssssssssssssccccssssssscssssscc" />
  <path
     d="m 0,0 5,1 c 0,0 13.449916,5.0585795 20,8 5.439549,2.442717 10.698029,5.271511 16,8 5.70116,2.933919 11.512036,5.684376 17,9 6.56823,3.96828 12.789667,8.492156 19,13 4.424387,3.211494 8.830241,6.464184 13,10 5.21646,4.423384 10.08117,9.247858 15,14 2.71223,2.620314 5.49723,5.178942 8,8 3.93863,4.439526 7.518,9.193976 11,14 3.52567,4.86629 6.81796,9.902379 10,15 2.45212,3.9283 4.90648,7.86943 7,12 3.77941,7.45687 7.07063,15.17008 10,23 2.32725,6.22053 4.3463,12.56755 6,19 2.11601,8.23072 3.52018,16.63147 5,25 0.76344,4.31733 1.48431,8.64612 2,13 0.47212,3.986 0.83319,7.9896 1,12 0.27706,6.66091 0,20 0,20 h -11 l -1.18513,0.11075 c 0,0 -0.21932,-15.42542 -0.81487,-23.11075 -0.64845,-8.36803 -1.56802,-16.72994 -3,-25 -1.28308,-7.41008 -3.25459,-14.68501 -5,-22 -0.95694,-4.01052 -3,-12 -3,-12 h -2 l -2.27544,4.41134 -7.94972,12.3635 c 0,0 -3.09412,4.2216 -4.77484,6.22516 -0.47167,0.56227 -1.48734,1.62341 -1.48734,1.62341 0,0 -1.03638,0.88879 -1.51266,1.37659 -0.31605,0.3237 -0.88925,1.02531 -0.88925,1.02531 L 119,170 c 0,0 -0.98471,1.03203 -1.48734,1.53797 -0.82644,0.83187 -1.6599,1.65716 -2.51266,2.46203 -3.60369,3.40132 -7.13516,6.89862 -11,10 -5.409779,4.34113 -11.063384,8.41284 -17,12 -8.009627,4.83976 -16.447041,8.97691 -25,12.77484 -6.192711,2.74987 -12.535263,5.19572 -19,7.22516 -6.556373,2.0582 -13.236512,3.78449 -20,5 -8.9126,1.60174 -17.9584717,2.49923 -27,3 -5.3251721,0.29494 -10.675462,0.30617 -16,0 -8.709781,-0.50083 -17.408034,-1.48698 -26,-3 -7.086638,-1.24794 -14.123289,-2.88136 -21,-5 -7.158689,-2.20551 -14.170244,-4.92339 -21,-8 -7.204895,-3.2456 -14.23866,-6.90993 -21,-11 -4.50957,-2.72793 -8.77303,-5.8519 -13,-9 -3.42358,-2.54977 -6.72626,-5.26051 -10,-8 -2.71745,-2.27399 -8,-7 -8,-7 v -2 l 231,-1 c 0,0 7.512298,-0.68668 11,-2 3.63793,-1.36989 6.93601,-3.60771 10,-6 3.71564,-2.90108 7.19358,-6.21236 10,-10 3.37354,-4.55306 5.96423,-9.71164 8,-15 0.49375,-1.28262 0.92988,-2.62742 1,-4 0.25384,-4.96918 -0.61416,-10.03436 -2.12581,-14.77484 C 126.68549,111.36146 122.85777,105.08427 119,99 116.07245,94.382821 112.44684,90.243608 109,86 105.12489,81.229119 101.17614,76.509723 97,72 94.757931,69.57884 92.446669,67.214205 90,65 86.487327,61.821074 82.711302,58.944602 79,56 74.71721,52.601972 70.496674,49.109471 66,46 59.228573,41.317527 52.135778,37.105904 45,33 40.088373,30.173866 35.108865,27.451655 30,25 20.845187,20.606765 2,13 2,13 l -5,-2 1.450325,-5.8741875 z"
     fill="#3469ed"
     transform="translate(216,150)"
     id="path3"
     sodipodi:nodetypes="ccssssssssssssssscccsssccccacsccaassssssssssssscccsssssssssssssscccc" />
  <path
     d="m 0,0 h 152 c 0,0 2.891,5.910034 4,9 2.10358,5.861119 3.6789,11.914568 5,18 1.36026,6.265844 2.18067,12.64077 3,19 0.42807,3.322495 0.83313,6.6542 1,10 0.3653,7.324229 0.43765,14.679737 0,22 -0.50089,8.378159 -1.53654,16.735453 -3,25 -1.01505,5.73224 -2.53329,11.36638 -4,17 -0.61141,2.34842 -2,7 -2,7 0,0 7.10201,13.80884 10,21 3.54602,8.79919 6.48872,17.85159 9,27 2.07686,7.56586 3.55425,15.28862 5,23 1.18152,6.30199 2.27093,12.62979 3,19 0.53199,4.64821 1,14 1,14 v 23 h -14 c 0,0 -0.73167,-22.71815 -2,-34 -1.1326,-10.07447 -2.83016,-20.09699 -5,-30 -1.62689,-7.42503 -3.6442,-14.77311 -6,-22 -2.32158,-7.1219 -4.98795,-14.14153 -8,-21 -2.39768,-5.45955 -5.16294,-10.75532 -8,-16 -2.20329,-4.07308 -4.49573,-8.10474 -7,-12 -3.75099,-5.83448 -7.73828,-11.52744 -12,-17 -3.77642,-4.849375 -7.82386,-9.490277 -12,-14 C 105.83616,83.503561 101.54381,79.112094 97,75 93.487327,71.821074 89.711302,68.944602 86,66 81.71721,62.601972 77.482622,59.129694 73,56 66.858115,51.711836 60.463553,47.785973 54,44 46.149383,39.401566 38.170726,35.002127 30,31 21.823793,26.995188 13.39446,23.524475 5,20 1.6898142,18.610195 -5,16 -5,16 L -2.8893539,8 -1,1 Z"
     fill="#1080ce"
     transform="translate(226,120)"
     id="path4"
     sodipodi:nodetypes="ccssssssscsssscccsssssssssssssscccc" />
</svg>
