<?xml version="1.0" encoding="UTF-8" standalone="no"?>
<!-- Created with Inkscape (http://www.inkscape.org/) -->

<svg
   width="512"
   height="512"
   viewBox="0 0 512 512"
   version="1.1"
   id="svg1"
   sodipodi:docname="logo_maskable.svg"
   inkscape:version="1.4.2 (ebf0e940d0, 2025-05-08)"
   xmlns:inkscape="http://www.inkscape.org/namespaces/inkscape"
   xmlns:sodipodi="http://sodipodi.sourceforge.net/DTD/sodipodi-0.dtd"
   xmlns:xlink="http://www.w3.org/1999/xlink"
   xmlns="http://www.w3.org/2000/svg"
   xmlns:svg="http://www.w3.org/2000/svg">
  <sodipodi:namedview
     id="namedview1"
     pagecolor="#ffffff"
     bordercolor="#000000"
     borderopacity="0.25"
     inkscape:showpageshadow="2"
     inkscape:pageopacity="0.0"
     inkscape:pagecheckerboard="false"
     inkscape:deskcolor="#d1d1d1"
     inkscape:document-units="px"
     inkscape:zoom="0.84"
     inkscape:cx="173.21429"
     inkscape:cy="254.7619"
     inkscape:window-width="1366"
     inkscape:window-height="696"
     inkscape:window-x="0"
     inkscape:window-y="0"
     inkscape:window-maximized="1"
     inkscape:current-layer="svg1" />
  <defs
     id="defs1">
    <linearGradient
       id="linearGradient16"
       inkscape:collect="always">
      <stop
         style="stop-color:#296aff;stop-opacity:1;"
         offset="0"
         id="stop17" />
      <stop
         style="stop-color:#2094ff;stop-opacity:1;"
         offset="0.49540278"
         id="stop18" />
    </linearGradient>
    <linearGradient
       id="swatch16"
       inkscape:swatch="solid">
      <stop
         style="stop-color:#2094ff;stop-opacity:1;"
         offset="0"
         id="stop16" />
    </linearGradient>
    <linearGradient
       inkscape:collect="always"
       xlink:href="#linearGradient16"
       id="linearGradient18"
       x1="518.42108"
       y1="507.3158"
       x2="-1.1578947"
       y2="-0.57894737"
       gradientUnits="userSpaceOnUse" />
  </defs>
  <rect
     style="fill:url(#linearGradient18);fill-opacity:1"
     id="rect1"
     width="512"
     height="512"
     x="0"
     y="0" />
  <g
     inkscape:label="Laag 1"
     inkscape:groupmode="layer"
     id="layer1">
    <g
       id="g1"
       transform="matrix(0.83517679,0,0,0.83517679,43.600285,44.598811)">
      <path
         d="m 270.46246,199.77335 122.89269,-0.59905 c 4.89147,10.04865 18.36716,44.41624 4.82212,96.4426 -0.49138,1.8874 -1.60737,5.62582 -1.60737,5.62582 13.5935,25.71033 20.98267,54.57374 22.50327,83.58358 v 18.48483 h -11.25164 c -2.85123,-84.8473 -31.95873,-145.8045 -132.60856,-188.06306 -2.66036,-1.11697 -8.03689,-3.21475 -8.03689,-3.21475 l 1.69631,-6.42951 1.51845,-5.62582 z"
         fill="#1080ce"
         id="path4"
         sodipodi:nodetypes="ccsccccscccc"
         style="fill:#b3ddff;fill-opacity:1;stroke-width:0.803688" />
      <path
         d="m 263.56372,222.89894 c 6.65953,2.26538 13.28041,4.7756 19.68613,7.61921 4.3717,1.96318 8.59788,4.23665 12.85901,6.4295 4.58196,2.35796 9.25209,4.56847 13.6627,7.2332 5.27881,3.18926 10.27891,6.82505 15.27008,10.44795 30.44419,22.09827 48.50282,47.83204 59.47293,77.15407 1.87039,4.99937 3.49307,10.10039 4.82213,15.27008 1.70062,6.61493 2.47056,9.34295 3.65987,16.06864 0.61357,3.46979 1.45114,9.63066 1.96595,14.47151 0.59621,5.60622 1.1649,13.64042 1.29896,16.86354 0.22267,5.35329 0.38913,8.83243 0.38913,8.83243 -3.71496,0.15576 -5.07823,-0.33374 -8.78358,0.0125 0,0 -0.0682,-7.25671 -0.54684,-13.43332 -0.52116,-6.72528 -1.98319,-17.81232 -3.13406,-24.45887 -1.0312,-5.95539 -2.57393,-11.27854 -4.22558,-16.81767 -1.16883,-3.91989 -4.01597,-11.59556 -4.01597,-11.59556 l -0.0857,0.008 -2.81734,3.95013 -6.3891,9.9364 c -3.10885,4.5276 -5.15972,6.69883 -8.09083,9.73341 -10.7953,11.17566 -43.26319,39.37198 -98.61875,42.68705 -45.87389,2.54077 -86.35445,-19.66238 -102.8721,-35.36229 -2.30343,-2.1894 -6.32573,-7.13292 -6.32573,-7.13292 l -0.10378,-0.10027 c 0.13893,-0.90299 132.01283,2.06533 186.9276,0.1862 18.18239,-0.62219 29.81225,-16.24618 30.87193,-30.72636 2.12342,-29.01596 -30.7567,-55.06525 -52.23974,-69.92088 -5.44212,-3.76324 -11.14251,-7.14808 -16.87745,-10.44794 -3.94742,-2.27133 -7.9494,-4.45914 -12.05533,-6.42951 -7.35761,-3.5308 -4.03026,-1.82993 -6.04049,-2.75561 -6.84599,-3.1525 -20.50426,-9.53034 -20.50426,-9.53034 1.37421,-3.5754 1.72864,-5.15987 2.84018,-8.19227 z"
         fill="#3469ed"
         id="path3"
         sodipodi:nodetypes="ccssssssasccssaccccasaccscsssacc"
         style="fill:#ccedff;fill-opacity:1;stroke-width:0.803688" />
      <path
         d="m 89.560971,102.73171 h 11.251639 c 0.6964,18.80169 1.77663,42.5162 10.44795,69.11719 14.52655,44.56309 48.23701,92.05836 132.60856,122.96431 2.38642,0.87416 7.2332,2.41106 7.2332,2.41106 l -2.18791,7.2785 -1.83053,5.58052 H 114.47531 c -4.70096,-11.57834 -18.724719,-46.26756 -6.4295,-94.83522 0.89423,-3.53235 3.21475,-10.44795 3.21475,-10.44795 0,0 -0.9947,-3.24245 -1.60738,-4.82213 C 97.841521,175.29718 90.994011,148.5558 89.560971,121.21654 Z"
         fill="#3469ed"
         id="path2"
         sodipodi:nodetypes="ccssccccscscc"
         style="fill:#b3ddff;fill-opacity:1;stroke-width:0.803688" />
      <path
         d="m 111.39505,102.84513 10.83279,0.1068 c 0,0 0.72996,9.83312 1.22257,14.73798 0.32007,3.18694 0.21995,1.0012 1.12578,9.5427 0.57135,5.38766 1.6229,11.15641 2.6533,16.69686 1.43941,7.73961 4.99038,23.41436 4.92696,23.0973 l 0.44631,1.60738 -0.15166,-0.20847 c 0,0 1.3076,-3.12752 2.11642,-4.61366 1.66973,-3.068 3.54636,-6.03407 5.62582,-8.84057 2.94079,-3.969 6.11156,-7.79892 9.64426,-11.25164 14.71663,-14.38346 51.75632,-37.5227 89.2094,-40.18441 9.61999,-0.68368 19.31278,-0.68368 28.93277,0 45.08074,3.20378 83.85636,32.13424 91.62047,44.87649 v 0.13005 l -189.67044,0.80369 c 0,0 -6.85891,0.11128 -12.85901,3.21475 -2.77496,1.43531 -5.33728,2.91259 -7.59402,4.91132 -2.59554,2.2988 -4.8407,5.03771 -6.66249,7.9877 -1.62231,2.62696 -3.29683,5.72292 -3.70298,8.49019 -0.62243,4.2409 0.21575,8.54518 1.88572,12.3657 8.78069,20.08811 24.06928,37.49383 40.98811,51.43605 21.9157,18.05997 46.67223,30.0364 75.5467,39.38073 -0.74396,3.22991 -1.57699,6.43691 -2.41107,9.64426 -18.26311,-5.71303 -53.26561,-19.05463 -82.77989,-44.20286 -42.98027,-34.74739 -55.33115,-81.5131 -59.78177,-124.5456 -0.52218,-5.04883 -1.16405,-15.18274 -1.16405,-15.18274 z"
         fill="#1080ce"
         id="path1"
         sodipodi:nodetypes="ccasacccasssscccsaasaasccsc"
         style="fill:#ccedff;fill-opacity:1;stroke-width:0.803688" />
    </g>
  </g>
</svg>
