<svg xmlns="http://www.w3.org/2000/svg" width="410" height="374"><path fill="#1080ce" d="m27.167.141 16.064.064s-.239 11.304-.099 16.954c.114 4.588.326 9.178.763 13.747.73 7.635 1.753 16.195 3.101 22.8C48.856 62.816 53 80 53 80l.555 2-.188-.26S54.994 77.85 56 76a93.81 93.81 0 0 1 7-11c3.66-4.938 7.604-9.704 12-14 3.388-3.311 7.23-6.132 11-9 5.521-4.199 11.16-8.259 17-12 6.162-3.947 12.448-7.74 19-11 6.152-3.061 12.518-5.719 19-8 6.867-2.417 13.906-4.365 21-6 5.607-1.292 11.318-2.093 17-3 2.328-.372 4.649-.833 7-1 11.97-.85 24.03-.85 36 0 7.053.501 14.084 1.525 21 3 7.12 1.518 14.111 3.645 21 6a206.762 206.762 0 0 1 20 8c5.818 2.694 11.536 5.644 17 9 5.91 3.63 11.527 7.738 17 12 7.448 5.83 13.227 10.005 18 17.838V57l-236 1s-8.534.138-16 4c-3.453 1.786-6.641 3.624-9.449 6.111-3.23 2.86-6.023 6.268-8.29 9.939-2.018 3.268-4.102 7.12-4.607 10.564C60.879 93.89 62.576 99.01 64 104c.697 2.441 1.868 4.728 3 7 2.396 4.811 5.021 9.526 8 14 3.03 4.55 6.567 8.745 10 13 3.565 4.418 7.156 8.823 11 13 2.554 2.775 5.204 5.47 8 8 3.513 3.179 7.289 6.055 11 9 4.283 3.398 8.51 6.88 13 10 5.165 3.588 10.583 6.805 16 10 5.912 3.487 11.865 6.922 18 10 6.534 3.278 13.24 6.215 20 9 7.9 3.255 15.946 6.149 24 9 .994.352 3 1 3 1l-1.555 6.445L206 229s-10.07-3.138-15-5c-8.804-3.324-17.454-7.06-26-11-5.415-2.496-10.733-5.204-16-8-5.405-2.87-10.807-5.763-16-9-5.493-3.423-10.786-7.165-16-11-4.781-3.516-9.483-7.15-14-11-4.489-3.825-8.747-7.914-13-12-2.72-2.613-5.497-5.179-8-8-3.939-4.44-7.42-9.266-11-14-2.734-3.616-5.498-7.22-8-11-3.218-4.863-6.263-9.851-9-15a162.39 162.39 0 0 1-7-15c-2.663-6.542-4.862-13.268-7-20-1.469-4.626-2.856-9.283-4-14a249.784 249.784 0 0 1-4-20c-1.357-8.625-1.47-17.3-1.932-25.968-.337-6.322-.611-18.984-.611-18.984Z"/><path fill="#3469ed" d="M0 0h14s.788 22.047 2 33c1.151 10.403 2.787 20.77 5 31 1.607 7.43 3.644 14.773 6 22a227.918 227.918 0 0 0 8 21c2.398 5.46 5.11 10.785 8 16 3.409 6.15 7.053 12.18 11 18 2.807 4.138 5.871 8.1 9 12 3.846 4.794 7.824 9.49 12 14 3.844 4.15 7.806 8.204 12 12 3.513 3.179 7.27 6.078 11 9 5.248 4.112 10.483 8.258 16 12 5.82 3.947 11.947 7.422 18 11 4.627 2.735 9.222 5.538 14 8 8.485 4.372 17.232 8.226 26 12 6.595 2.839 13.258 5.53 20 8 2.97 1.088 9 3 9 3l-2.722 9.056L196 258H31s-4.307-10.562-6-16c-1.634-5.249-2.88-10.618-4-16-1.239-5.955-2.266-11.962-3-18-.524-4.314-.833-8.657-1-13-.205-5.33-.28-10.674 0-16 .334-6.36 1.041-12.704 2-19 1.024-6.721 2.332-13.41 4-20 1.113-4.395 4-13 4-13s-1.238-4.034-2-6c-2.374-6.122-5.626-11.878-8-18-3.05-7.862-5.768-15.868-8-24-2.077-7.566-3.554-15.289-5-23-1.182-6.302-2.27-12.63-3-19-.532-4.648-1-14-1-14Z"/><path fill="#3469ed" d="M216.505 149.52c8.286 2.818 16.525 5.942 24.495 9.48 5.44 2.443 10.698 5.272 16 8 5.701 2.934 11.512 5.684 17 9 6.568 3.968 12.79 8.492 19 13 4.424 3.211 8.83 6.464 13 10 5.216 4.423 10.081 9.248 15 14 2.712 2.62 5.497 5.179 8 8 3.939 4.44 7.518 9.194 11 14 3.526 4.866 6.818 9.902 10 15 2.452 3.928 4.906 7.87 7 12 3.78 7.457 7.07 15.17 10 23a187.545 187.545 0 0 1 6 19c2.116 8.23 3.074 11.625 4.554 19.994.763 4.317 1.73 13.316 2.37 19.339.743 6.976 1.001 16.042 1.167 20.053.277 6.66-.05 10.602-.05 10.602-4.622.193-9.485-.24-14.096.19 0 0 .441-9.946-.154-17.63-.649-8.369-.874-16.594-2.086-26.763-.89-7.468-2.497-14.39-4.081-21.516-1.254-5.636-4.287-16.782-4.287-16.782l-.107.01-3.505 4.915-7.95 12.363c-3.868 5.634-6.42 8.335-10.067 12.111C330.144 325.61 323.865 330.9 320 334c-5.41 4.341-11.063 8.413-17 12-8.01 4.84-16.447 8.977-25 12.775-6.193 2.75-12.535 5.196-19 7.225-6.556 2.058-13.237 3.784-20 5-8.913 1.602-17.958 2.5-27 3-5.325.295-10.675.306-16 0a224.08 224.08 0 0 1-26-3c-7.087-1.248-14.123-2.881-21-5-7.159-2.206-14.17-4.923-21-8-7.205-3.246-14.239-6.91-21-11-4.51-2.728-8.773-5.852-13-9-3.424-2.55-6.906-5.06-10-8-2.866-2.724-7.87-8.875-7.87-8.875L76 321l232.587.232s5.63.597 10.991-2.087c3.838-1.921 7.098-3.947 9.305-6.437 3.128-3.528 6.31-6.92 9.117-10.708 3.374-4.553 5.964-9.712 8-15 .494-1.283.93-2.627 1-4 .254-4.97-.614-10.034-2.126-14.775-2.189-6.864-6.016-13.14-9.874-19.225-2.928-4.617-6.553-8.756-10-13-3.875-4.77-7.824-9.49-12-14-2.242-2.421-4.553-4.786-7-7-3.513-3.179-7.289-6.055-11-9-4.283-3.398-8.503-6.89-13-10-6.771-4.682-13.864-8.894-21-13-4.912-2.826-9.891-5.548-15-8-9.155-4.393-5.015-2.277-7.516-3.429-8.518-3.922-25.513-11.858-25.513-11.858 1.71-4.449 2.151-6.42 3.534-10.193z"/><path fill="#1080ce" d="M225.09 120.745 378 120s2.891 5.91 4 9c2.104 5.861 3.679 11.915 5 18 1.36 6.266 2.18 12.64 3 19 .428 3.322.833 6.654 1 10 .365 7.324.438 14.68 0 22-.5 8.378-1.537 16.735-3 25-1.015 5.732-2.533 11.366-4 17-.611 2.348-2 7-2 7s7.102 13.809 10 21c3.546 8.8 6.489 17.852 9 27 2.077 7.566 3.554 15.289 5 23 1.182 6.302 2.27 12.63 3 19 .532 4.648 1 14 1 14v23h-14s-.732-22.718-2-34c-1.133-10.074-2.83-20.097-5-30a229.613 229.613 0 0 0-6-22 227.92 227.92 0 0 0-8-21c-2.398-5.46-5.163-10.755-8-16-2.203-4.073-4.496-8.105-7-12-3.751-5.834-7.738-11.527-12-17-3.776-4.85-7.824-9.49-12-14-4.164-4.496-8.456-8.888-13-13-3.513-3.179-7.289-6.055-11-9-4.283-3.398-8.517-6.87-13-10-6.142-4.288-12.536-8.214-19-12-7.85-4.598-15.83-8.998-24-13-8.176-4.005-16.606-7.476-25-11-3.31-1.39-10-4-10-4l2.11-8 1.89-7Z"/></svg>